<svg xmlns="http://www.w3.org/2000/svg" xmlns:xlink="http://www.w3.org/1999/xlink" width="500" zoomAndPan="magnify" viewBox="0 0 375 374.999991" height="500" preserveAspectRatio="xMidYMid meet" version="1.0"><defs><clipPath id="e34d3d660e"><path d="M 37.5 286 L 44 286 L 44 304 L 37.5 304 Z M 37.5 286 " clip-rule="nonzero"/></clipPath><clipPath id="c32b48ffe1"><path d="M 37.5 319 L 223 319 L 223 368 L 37.5 368 Z M 37.5 319 " clip-rule="nonzero"/></clipPath><clipPath id="d4ae206100"><path d="M 37.5 22 L 107 22 L 107 271 L 37.5 271 Z M 37.5 22 " clip-rule="nonzero"/></clipPath><clipPath id="311a235265"><path d="M 242 255 L 355.5 255 L 355.5 368 L 242 368 Z M 242 255 " clip-rule="nonzero"/></clipPath></defs><path fill="#ffffff" d="M 298.875 46.074219 L 298.875 364.632812 L 40.574219 364.632812 L 40.574219 46.074219 C 40.574219 45.425781 40.605469 44.777344 40.667969 44.132812 C 40.730469 43.484375 40.824219 42.84375 40.949219 42.203125 C 41.078125 41.566406 41.234375 40.9375 41.421875 40.316406 C 41.609375 39.691406 41.828125 39.082031 42.078125 38.480469 C 42.324219 37.878906 42.601562 37.292969 42.910156 36.71875 C 43.214844 36.148438 43.546875 35.589844 43.910156 35.050781 C 44.269531 34.507812 44.65625 33.988281 45.066406 33.484375 C 45.480469 32.984375 45.917969 32.503906 46.375 32.042969 C 46.835938 31.582031 47.316406 31.148438 47.820312 30.734375 C 48.320312 30.324219 48.84375 29.9375 49.382812 29.574219 C 49.921875 29.214844 50.480469 28.882812 51.054688 28.574219 C 51.625 28.269531 52.214844 27.992188 52.8125 27.742188 C 53.414062 27.496094 54.027344 27.277344 54.648438 27.089844 C 55.269531 26.902344 55.898438 26.742188 56.535156 26.617188 C 57.175781 26.492188 57.816406 26.398438 58.464844 26.332031 C 59.109375 26.269531 59.757812 26.238281 60.40625 26.242188 L 279.042969 26.242188 C 279.691406 26.238281 280.339844 26.269531 280.984375 26.332031 C 281.632812 26.398438 282.273438 26.492188 282.914062 26.617188 C 283.550781 26.742188 284.179688 26.902344 284.800781 27.089844 C 285.421875 27.277344 286.035156 27.496094 286.636719 27.742188 C 287.234375 27.992188 287.824219 28.269531 288.394531 28.574219 C 288.96875 28.882812 289.527344 29.214844 290.066406 29.574219 C 290.605469 29.9375 291.128906 30.324219 291.628906 30.734375 C 292.132812 31.148438 292.613281 31.582031 293.074219 32.042969 C 293.53125 32.503906 293.96875 32.984375 294.382812 33.484375 C 294.792969 33.988281 295.179688 34.507812 295.539062 35.050781 C 295.902344 35.589844 296.234375 36.148438 296.539062 36.71875 C 296.847656 37.292969 297.125 37.878906 297.371094 38.480469 C 297.621094 39.082031 297.839844 39.691406 298.027344 40.316406 C 298.214844 40.9375 298.371094 41.566406 298.5 42.203125 C 298.625 42.84375 298.71875 43.484375 298.78125 44.132812 C 298.84375 44.777344 298.875 45.425781 298.875 46.074219 Z M 298.875 46.074219 " fill-opacity="1" fill-rule="nonzero"/><path fill="#ffffff" d="M 60.40625 46.074219 L 279.042969 46.074219 L 279.042969 326.136719 L 60.40625 326.136719 Z M 60.40625 46.074219 " fill-opacity="1" fill-rule="nonzero"/><path fill="#ffffff" d="M 236.5625 26.242188 L 236.5625 63.597656 L 102.886719 63.597656 L 102.886719 26.242188 L 126.75 26.242188 L 126.75 20.820312 C 126.75 19.949219 126.835938 19.089844 127.003906 18.238281 C 127.175781 17.386719 127.425781 16.558594 127.757812 15.757812 C 128.089844 14.957031 128.496094 14.195312 128.980469 13.472656 C 129.460938 12.75 130.007812 12.082031 130.625 11.46875 C 131.238281 10.851562 131.90625 10.304688 132.628906 9.824219 C 133.347656 9.339844 134.109375 8.933594 134.914062 8.601562 C 135.714844 8.269531 136.542969 8.019531 137.394531 7.847656 C 138.246094 7.679688 139.105469 7.59375 139.972656 7.59375 L 199.476562 7.59375 C 200.34375 7.59375 201.203125 7.679688 202.054688 7.847656 C 202.90625 8.019531 203.734375 8.269531 204.535156 8.601562 C 205.339844 8.933594 206.101562 9.339844 206.820312 9.824219 C 207.542969 10.304688 208.210938 10.851562 208.824219 11.46875 C 209.441406 12.082031 209.988281 12.75 210.46875 13.472656 C 210.953125 14.195312 211.359375 14.957031 211.691406 15.757812 C 212.023438 16.558594 212.273438 17.386719 212.445312 18.238281 C 212.613281 19.089844 212.699219 19.949219 212.699219 20.820312 L 212.699219 26.242188 Z M 236.5625 26.242188 " fill-opacity="1" fill-rule="nonzero"/><path fill="#ffb08c" d="M 236.5625 26.242188 L 236.5625 63.597656 L 116.109375 63.597656 L 116.109375 39.464844 L 139.972656 39.464844 L 139.972656 34.042969 C 139.972656 33.175781 140.058594 32.3125 140.226562 31.460938 C 140.398438 30.609375 140.648438 29.785156 140.980469 28.980469 C 141.3125 28.179688 141.71875 27.417969 142.203125 26.695312 C 142.683594 25.972656 143.230469 25.304688 143.84375 24.691406 C 144.460938 24.078125 145.128906 23.527344 145.847656 23.046875 C 146.570312 22.5625 147.332031 22.15625 148.136719 21.824219 C 148.9375 21.492188 149.765625 21.242188 150.617188 21.074219 C 151.46875 20.902344 152.328125 20.820312 153.195312 20.820312 L 212.699219 20.820312 L 212.699219 26.242188 Z M 236.5625 26.242188 " fill-opacity="1" fill-rule="nonzero"/><path fill="#95cf6a" d="M 80.242188 83.433594 L 112.667969 83.433594 L 112.667969 115.863281 L 80.242188 115.863281 Z M 80.242188 83.433594 " fill-opacity="1" fill-rule="nonzero"/><path fill="#fece6f" d="M 245.984375 258.84375 L 351.765625 258.84375 L 351.765625 364.632812 L 245.984375 364.632812 Z M 245.984375 258.84375 " fill-opacity="1" fill-rule="nonzero"/><path fill="#9cc6ec" d="M 219.539062 258.84375 L 232.761719 258.84375 L 232.761719 364.632812 L 219.539062 364.632812 Z M 219.539062 258.84375 " fill-opacity="1" fill-rule="nonzero"/><path fill="#f9ae1f" d="M 232.761719 258.84375 L 245.984375 258.84375 L 245.984375 364.632812 L 232.761719 364.632812 Z M 232.761719 258.84375 " fill-opacity="1" fill-rule="nonzero"/><path fill="#ff775b" d="M 281.242188 258.84375 L 316.5 258.84375 L 316.5 294.101562 L 281.242188 294.101562 Z M 281.242188 258.84375 " fill-opacity="1" fill-rule="nonzero"/><path fill="#72dee0" d="M 259.941406 338.183594 L 306.21875 338.183594 L 306.21875 351.40625 L 259.941406 351.40625 Z M 259.941406 338.183594 " fill-opacity="1" fill-rule="nonzero"/><path fill="#95cf6a" d="M 80.242188 142.308594 L 112.667969 142.308594 L 112.667969 174.742188 L 80.242188 174.742188 Z M 80.242188 142.308594 " fill-opacity="1" fill-rule="nonzero"/><path fill="#95cf6a" d="M 80.242188 201.1875 L 112.667969 201.1875 L 112.667969 233.617188 L 80.242188 233.617188 Z M 80.242188 201.1875 " fill-opacity="1" fill-rule="nonzero"/><path fill="#95cf6a" d="M 80.242188 260.066406 L 112.667969 260.066406 L 112.667969 292.496094 L 80.242188 292.496094 Z M 80.242188 260.066406 " fill-opacity="1" fill-rule="nonzero"/><g clip-path="url(#e34d3d660e)"><path fill="#3a287a" d="M 40.542969 303.007812 C 40.101562 303.007812 39.679688 302.925781 39.277344 302.757812 C 38.871094 302.589844 38.515625 302.351562 38.203125 302.042969 C 37.894531 301.730469 37.65625 301.375 37.488281 300.96875 C 37.320312 300.5625 37.234375 300.140625 37.234375 299.703125 L 37.234375 289.851562 C 37.234375 289.414062 37.320312 288.992188 37.488281 288.585938 C 37.65625 288.183594 37.894531 287.824219 38.203125 287.515625 C 38.515625 287.203125 38.871094 286.964844 39.277344 286.796875 C 39.679688 286.628906 40.101562 286.546875 40.542969 286.546875 C 40.980469 286.546875 41.402344 286.628906 41.804688 286.796875 C 42.210938 286.964844 42.570312 287.203125 42.878906 287.515625 C 43.1875 287.824219 43.425781 288.183594 43.59375 288.585938 C 43.761719 288.992188 43.847656 289.414062 43.847656 289.851562 L 43.847656 299.703125 C 43.847656 300.140625 43.761719 300.5625 43.59375 300.96875 C 43.425781 301.375 43.1875 301.730469 42.878906 302.042969 C 42.570312 302.351562 42.210938 302.589844 41.804688 302.757812 C 41.402344 302.925781 40.980469 303.007812 40.542969 303.007812 Z M 40.542969 303.007812 " fill-opacity="1" fill-rule="nonzero"/></g><g clip-path="url(#c32b48ffe1)"><path fill="#3a287a" d="M 219.574219 367.9375 L 40.542969 367.9375 C 40.101562 367.9375 39.679688 367.851562 39.277344 367.683594 C 38.871094 367.515625 38.515625 367.277344 38.203125 366.96875 C 37.894531 366.660156 37.65625 366.300781 37.488281 365.894531 C 37.320312 365.492188 37.234375 365.070312 37.234375 364.632812 L 37.234375 322.515625 C 37.234375 322.074219 37.320312 321.652344 37.488281 321.25 C 37.65625 320.84375 37.894531 320.488281 38.203125 320.175781 C 38.515625 319.867188 38.871094 319.628906 39.277344 319.460938 C 39.679688 319.292969 40.101562 319.207031 40.542969 319.207031 C 40.980469 319.207031 41.402344 319.292969 41.804688 319.460938 C 42.210938 319.628906 42.570312 319.867188 42.878906 320.175781 C 43.1875 320.488281 43.425781 320.84375 43.59375 321.25 C 43.761719 321.652344 43.847656 322.074219 43.847656 322.515625 L 43.847656 361.324219 L 219.574219 361.324219 C 220.011719 361.324219 220.433594 361.410156 220.839844 361.578125 C 221.242188 361.746094 221.601562 361.984375 221.910156 362.292969 C 222.21875 362.601562 222.460938 362.960938 222.628906 363.367188 C 222.796875 363.769531 222.878906 364.191406 222.878906 364.632812 C 222.878906 365.070312 222.796875 365.492188 222.628906 365.894531 C 222.460938 366.300781 222.21875 366.660156 221.910156 366.96875 C 221.601562 367.277344 221.242188 367.515625 220.839844 367.683594 C 220.433594 367.851562 220.011719 367.9375 219.574219 367.9375 Z M 219.574219 367.9375 " fill-opacity="1" fill-rule="nonzero"/></g><g clip-path="url(#d4ae206100)"><path fill="#3a287a" d="M 40.542969 270.414062 C 40.101562 270.414062 39.679688 270.328125 39.277344 270.160156 C 38.871094 269.992188 38.515625 269.753906 38.203125 269.445312 C 37.894531 269.136719 37.65625 268.777344 37.488281 268.371094 C 37.320312 267.96875 37.234375 267.546875 37.234375 267.109375 L 37.234375 46.074219 C 37.238281 45.320312 37.273438 44.5625 37.347656 43.808594 C 37.425781 43.054688 37.535156 42.304688 37.683594 41.5625 C 37.832031 40.820312 38.019531 40.085938 38.238281 39.363281 C 38.457031 38.636719 38.714844 37.925781 39.003906 37.226562 C 39.292969 36.523438 39.617188 35.839844 39.976562 35.171875 C 40.332031 34.503906 40.722656 33.855469 41.144531 33.226562 C 41.566406 32.597656 42.015625 31.988281 42.496094 31.402344 C 42.976562 30.816406 43.484375 30.257812 44.019531 29.722656 C 44.558594 29.183594 45.117188 28.675781 45.703125 28.195312 C 46.289062 27.714844 46.894531 27.265625 47.527344 26.84375 C 48.15625 26.421875 48.804688 26.03125 49.472656 25.675781 C 50.140625 25.316406 50.824219 24.996094 51.523438 24.703125 C 52.222656 24.414062 52.9375 24.15625 53.660156 23.9375 C 54.386719 23.71875 55.121094 23.53125 55.863281 23.382812 C 56.605469 23.234375 57.355469 23.125 58.109375 23.046875 C 58.863281 22.972656 59.617188 22.9375 60.375 22.933594 L 102.886719 22.933594 C 103.324219 22.933594 103.746094 23.019531 104.148438 23.1875 C 104.554688 23.355469 104.914062 23.59375 105.222656 23.902344 C 105.53125 24.214844 105.769531 24.570312 105.9375 24.976562 C 106.105469 25.378906 106.191406 25.800781 106.191406 26.242188 C 106.191406 26.679688 106.105469 27.101562 105.9375 27.503906 C 105.769531 27.910156 105.53125 28.269531 105.222656 28.578125 C 104.914062 28.886719 104.554688 29.128906 104.148438 29.296875 C 103.746094 29.460938 103.324219 29.546875 102.886719 29.546875 L 60.375 29.546875 C 59.832031 29.546875 59.292969 29.574219 58.753906 29.628906 C 58.21875 29.679688 57.683594 29.761719 57.152344 29.867188 C 56.621094 29.972656 56.097656 30.105469 55.578125 30.261719 C 55.0625 30.417969 54.550781 30.601562 54.050781 30.808594 C 53.550781 31.015625 53.0625 31.25 52.585938 31.503906 C 52.109375 31.757812 51.644531 32.035156 51.195312 32.335938 C 50.746094 32.636719 50.3125 32.960938 49.894531 33.304688 C 49.476562 33.648438 49.074219 34.011719 48.691406 34.394531 C 48.308594 34.777344 47.945312 35.175781 47.605469 35.59375 C 47.261719 36.011719 46.9375 36.445312 46.636719 36.898438 C 46.335938 37.347656 46.058594 37.808594 45.804688 38.289062 C 45.546875 38.765625 45.316406 39.253906 45.109375 39.753906 C 44.902344 40.253906 44.71875 40.761719 44.5625 41.28125 C 44.40625 41.796875 44.273438 42.320312 44.167969 42.851562 C 44.0625 43.382812 43.980469 43.917969 43.929688 44.457031 C 43.875 44.996094 43.847656 45.535156 43.847656 46.074219 L 43.847656 267.109375 C 43.847656 267.546875 43.761719 267.96875 43.59375 268.371094 C 43.425781 268.777344 43.1875 269.136719 42.878906 269.445312 C 42.570312 269.753906 42.210938 269.992188 41.804688 270.160156 C 41.402344 270.328125 40.980469 270.414062 40.542969 270.414062 Z M 40.542969 270.414062 " fill-opacity="1" fill-rule="nonzero"/></g><path fill="#3a287a" d="M 298.90625 248.925781 C 298.46875 248.925781 298.046875 248.839844 297.644531 248.671875 C 297.238281 248.503906 296.878906 248.265625 296.570312 247.957031 C 296.261719 247.648438 296.023438 247.289062 295.855469 246.882812 C 295.6875 246.480469 295.601562 246.058594 295.601562 245.621094 L 295.601562 46.074219 C 295.601562 45.535156 295.574219 44.996094 295.519531 44.457031 C 295.46875 43.917969 295.386719 43.382812 295.28125 42.851562 C 295.175781 42.320312 295.042969 41.796875 294.886719 41.28125 C 294.730469 40.761719 294.546875 40.253906 294.339844 39.753906 C 294.132812 39.253906 293.902344 38.765625 293.644531 38.289062 C 293.390625 37.808594 293.113281 37.347656 292.8125 36.898438 C 292.511719 36.445312 292.1875 36.011719 291.84375 35.59375 C 291.503906 35.175781 291.140625 34.777344 290.757812 34.394531 C 290.375 34.011719 289.972656 33.648438 289.554688 33.304688 C 289.136719 32.960938 288.703125 32.636719 288.253906 32.335938 C 287.804688 32.035156 287.339844 31.757812 286.863281 31.503906 C 286.386719 31.25 285.894531 31.015625 285.398438 30.808594 C 284.898438 30.601562 284.386719 30.417969 283.871094 30.261719 C 283.351562 30.105469 282.828125 29.972656 282.296875 29.867188 C 281.765625 29.761719 281.230469 29.679688 280.695312 29.628906 C 280.15625 29.574219 279.617188 29.546875 279.074219 29.546875 L 236.5625 29.546875 C 236.125 29.546875 235.703125 29.460938 235.300781 29.296875 C 234.894531 29.128906 234.535156 28.886719 234.226562 28.578125 C 233.917969 28.269531 233.679688 27.910156 233.511719 27.503906 C 233.34375 27.101562 233.257812 26.679688 233.257812 26.242188 C 233.257812 25.800781 233.34375 25.378906 233.511719 24.976562 C 233.679688 24.570312 233.917969 24.214844 234.226562 23.902344 C 234.535156 23.59375 234.894531 23.355469 235.300781 23.1875 C 235.703125 23.019531 236.125 22.933594 236.5625 22.933594 L 279.074219 22.933594 C 279.832031 22.9375 280.585938 22.972656 281.339844 23.046875 C 282.09375 23.125 282.84375 23.234375 283.585938 23.382812 C 284.328125 23.53125 285.0625 23.71875 285.789062 23.9375 C 286.511719 24.15625 287.226562 24.414062 287.925781 24.703125 C 288.625 24.996094 289.308594 25.316406 289.976562 25.675781 C 290.644531 26.03125 291.292969 26.421875 291.921875 26.84375 C 292.554688 27.265625 293.160156 27.714844 293.746094 28.195312 C 294.332031 28.675781 294.890625 29.183594 295.429688 29.722656 C 295.964844 30.257812 296.472656 30.816406 296.953125 31.402344 C 297.433594 31.988281 297.882812 32.597656 298.304688 33.226562 C 298.726562 33.855469 299.117188 34.503906 299.472656 35.171875 C 299.832031 35.839844 300.15625 36.523438 300.445312 37.226562 C 300.734375 37.925781 300.992188 38.636719 301.210938 39.363281 C 301.429688 40.085938 301.617188 40.820312 301.765625 41.5625 C 301.914062 42.304688 302.023438 43.054688 302.101562 43.808594 C 302.175781 44.5625 302.210938 45.320312 302.214844 46.074219 L 302.214844 245.621094 C 302.214844 246.058594 302.128906 246.480469 301.960938 246.882812 C 301.792969 247.289062 301.554688 247.648438 301.246094 247.957031 C 300.933594 248.265625 300.578125 248.503906 300.171875 248.671875 C 299.769531 248.839844 299.347656 248.925781 298.90625 248.925781 Z M 298.90625 248.925781 " fill-opacity="1" fill-rule="nonzero"/><path fill="#3a287a" d="M 219.574219 329.457031 L 60.375 329.457031 C 59.9375 329.457031 59.515625 329.371094 59.109375 329.203125 C 58.703125 329.035156 58.347656 328.796875 58.039062 328.488281 C 57.726562 328.179688 57.488281 327.820312 57.320312 327.414062 C 57.152344 327.011719 57.070312 326.589844 57.070312 326.152344 L 57.070312 46.074219 C 57.070312 45.636719 57.152344 45.214844 57.320312 44.8125 C 57.488281 44.40625 57.726562 44.046875 58.039062 43.738281 C 58.347656 43.429688 58.703125 43.191406 59.109375 43.023438 C 59.515625 42.855469 59.9375 42.769531 60.375 42.769531 L 102.886719 42.769531 C 103.324219 42.769531 103.746094 42.855469 104.148438 43.023438 C 104.554688 43.191406 104.914062 43.429688 105.222656 43.738281 C 105.53125 44.046875 105.769531 44.40625 105.9375 44.8125 C 106.105469 45.214844 106.191406 45.636719 106.191406 46.074219 C 106.191406 46.515625 106.105469 46.9375 105.9375 47.339844 C 105.769531 47.746094 105.53125 48.105469 105.222656 48.414062 C 104.914062 48.722656 104.554688 48.960938 104.148438 49.128906 C 103.746094 49.296875 103.324219 49.382812 102.886719 49.382812 L 63.679688 49.382812 L 63.679688 322.84375 L 219.574219 322.84375 C 220.011719 322.84375 220.433594 322.929688 220.839844 323.097656 C 221.242188 323.265625 221.601562 323.503906 221.910156 323.8125 C 222.21875 324.121094 222.460938 324.480469 222.628906 324.886719 C 222.796875 325.289062 222.878906 325.710938 222.878906 326.152344 C 222.878906 326.589844 222.796875 327.011719 222.628906 327.414062 C 222.460938 327.820312 222.21875 328.179688 221.910156 328.488281 C 221.601562 328.796875 221.242188 329.035156 220.839844 329.203125 C 220.433594 329.371094 220.011719 329.457031 219.574219 329.457031 Z M 219.574219 329.457031 " fill-opacity="1" fill-rule="nonzero"/><path fill="#3a287a" d="M 279.007812 248.925781 C 278.570312 248.925781 278.148438 248.839844 277.742188 248.671875 C 277.339844 248.503906 276.980469 248.265625 276.671875 247.957031 C 276.359375 247.648438 276.121094 247.289062 275.953125 246.882812 C 275.785156 246.480469 275.703125 246.058594 275.703125 245.621094 L 275.703125 49.382812 L 236.5625 49.382812 C 236.125 49.382812 235.703125 49.296875 235.300781 49.128906 C 234.894531 48.960938 234.535156 48.722656 234.226562 48.414062 C 233.917969 48.105469 233.679688 47.746094 233.511719 47.339844 C 233.34375 46.9375 233.257812 46.515625 233.257812 46.074219 C 233.257812 45.636719 233.34375 45.214844 233.511719 44.8125 C 233.679688 44.40625 233.917969 44.046875 234.226562 43.738281 C 234.535156 43.429688 234.894531 43.191406 235.300781 43.023438 C 235.703125 42.855469 236.125 42.769531 236.5625 42.769531 L 279.007812 42.769531 C 279.445312 42.769531 279.867188 42.855469 280.273438 43.023438 C 280.679688 43.191406 281.035156 43.429688 281.34375 43.738281 C 281.65625 44.046875 281.894531 44.40625 282.0625 44.8125 C 282.230469 45.214844 282.3125 45.636719 282.3125 46.074219 L 282.3125 245.621094 C 282.3125 246.058594 282.230469 246.480469 282.0625 246.882812 C 281.894531 247.289062 281.65625 247.648438 281.34375 247.957031 C 281.035156 248.265625 280.679688 248.503906 280.273438 248.671875 C 279.867188 248.839844 279.445312 248.925781 279.007812 248.925781 Z M 279.007812 248.925781 " fill-opacity="1" fill-rule="nonzero"/><path fill="#3a287a" d="M 236.535156 66.902344 L 102.914062 66.902344 C 102.476562 66.902344 102.054688 66.820312 101.648438 66.652344 C 101.246094 66.484375 100.886719 66.246094 100.578125 65.933594 C 100.265625 65.625 100.027344 65.265625 99.859375 64.863281 C 99.691406 64.457031 99.609375 64.035156 99.609375 63.597656 L 99.609375 26.242188 C 99.609375 25.800781 99.691406 25.378906 99.859375 24.976562 C 100.027344 24.570312 100.265625 24.214844 100.578125 23.902344 C 100.886719 23.59375 101.246094 23.355469 101.648438 23.1875 C 102.054688 23.019531 102.476562 22.933594 102.914062 22.933594 L 123.476562 22.933594 L 123.476562 20.820312 C 123.476562 20.277344 123.503906 19.738281 123.558594 19.199219 C 123.609375 18.660156 123.691406 18.125 123.796875 17.59375 C 123.902344 17.066406 124.035156 16.539062 124.191406 16.023438 C 124.347656 15.503906 124.53125 14.996094 124.738281 14.496094 C 124.945312 13.996094 125.175781 13.507812 125.433594 13.03125 C 125.6875 12.554688 125.964844 12.089844 126.265625 11.640625 C 126.566406 11.191406 126.890625 10.757812 127.234375 10.335938 C 127.574219 9.917969 127.9375 9.519531 128.320312 9.136719 C 128.703125 8.753906 129.105469 8.390625 129.523438 8.046875 C 129.941406 7.703125 130.375 7.382812 130.824219 7.082031 C 131.273438 6.78125 131.738281 6.5 132.214844 6.246094 C 132.691406 5.992188 133.179688 5.761719 133.679688 5.550781 C 134.179688 5.34375 134.691406 5.164062 135.207031 5.003906 C 135.726562 4.847656 136.25 4.714844 136.78125 4.609375 C 137.3125 4.503906 137.847656 4.425781 138.382812 4.371094 C 138.921875 4.316406 139.460938 4.289062 140.003906 4.289062 L 199.4375 4.289062 C 199.980469 4.289062 200.519531 4.316406 201.058594 4.371094 C 201.597656 4.425781 202.132812 4.503906 202.660156 4.609375 C 203.191406 4.714844 203.71875 4.847656 204.234375 5.003906 C 204.753906 5.164062 205.261719 5.34375 205.761719 5.550781 C 206.261719 5.761719 206.75 5.992188 207.226562 6.246094 C 207.703125 6.5 208.167969 6.78125 208.617188 7.082031 C 209.066406 7.382812 209.5 7.703125 209.917969 8.046875 C 210.335938 8.390625 210.738281 8.753906 211.121094 9.136719 C 211.503906 9.519531 211.867188 9.917969 212.210938 10.335938 C 212.554688 10.757812 212.875 11.191406 213.175781 11.640625 C 213.476562 12.089844 213.753906 12.554688 214.011719 13.03125 C 214.265625 13.507812 214.496094 13.996094 214.703125 14.496094 C 214.910156 14.996094 215.09375 15.503906 215.25 16.023438 C 215.410156 16.539062 215.539062 17.066406 215.644531 17.59375 C 215.753906 18.125 215.832031 18.660156 215.886719 19.199219 C 215.9375 19.738281 215.964844 20.277344 215.964844 20.820312 L 215.964844 22.933594 L 236.527344 22.933594 C 236.964844 22.933594 237.386719 23.019531 237.792969 23.1875 C 238.199219 23.355469 238.554688 23.59375 238.863281 23.902344 C 239.175781 24.214844 239.414062 24.570312 239.582031 24.976562 C 239.75 25.378906 239.832031 25.800781 239.832031 26.242188 L 239.832031 63.597656 C 239.832031 64.035156 239.75 64.457031 239.582031 64.859375 C 239.414062 65.265625 239.175781 65.621094 238.867188 65.933594 C 238.558594 66.242188 238.203125 66.480469 237.796875 66.648438 C 237.394531 66.816406 236.972656 66.902344 236.535156 66.902344 Z M 106.21875 60.292969 L 233.230469 60.292969 L 233.230469 29.546875 L 212.667969 29.546875 C 212.230469 29.546875 211.808594 29.460938 211.402344 29.296875 C 210.996094 29.128906 210.640625 28.886719 210.332031 28.578125 C 210.019531 28.269531 209.78125 27.910156 209.613281 27.503906 C 209.445312 27.101562 209.363281 26.679688 209.363281 26.242188 L 209.363281 20.820312 C 209.363281 20.167969 209.296875 19.523438 209.167969 18.886719 C 209.042969 18.246094 208.855469 17.625 208.605469 17.027344 C 208.355469 16.425781 208.050781 15.851562 207.6875 15.3125 C 207.324219 14.769531 206.914062 14.269531 206.453125 13.808594 C 205.996094 13.347656 205.492188 12.9375 204.953125 12.574219 C 204.410156 12.214844 203.839844 11.910156 203.238281 11.660156 C 202.636719 11.410156 202.019531 11.222656 201.378906 11.09375 C 200.742188 10.964844 200.097656 10.902344 199.445312 10.902344 L 140.011719 10.902344 C 139.359375 10.902344 138.714844 10.964844 138.078125 11.09375 C 137.4375 11.222656 136.816406 11.410156 136.21875 11.660156 C 135.617188 11.910156 135.042969 12.214844 134.503906 12.574219 C 133.960938 12.9375 133.460938 13.347656 133 13.808594 C 132.539062 14.269531 132.128906 14.769531 131.769531 15.3125 C 131.40625 15.851562 131.101562 16.425781 130.851562 17.027344 C 130.601562 17.625 130.414062 18.246094 130.285156 18.886719 C 130.160156 19.523438 130.09375 20.167969 130.09375 20.820312 L 130.09375 26.242188 C 130.09375 26.679688 130.007812 27.101562 129.84375 27.507812 C 129.675781 27.910156 129.433594 28.269531 129.125 28.578125 C 128.816406 28.886719 128.457031 29.128906 128.054688 29.296875 C 127.648438 29.460938 127.226562 29.546875 126.789062 29.546875 L 106.226562 29.546875 Z M 106.21875 60.292969 " fill-opacity="1" fill-rule="nonzero"/><path fill="#3a287a" d="M 179.523438 29.546875 L 159.929688 29.546875 C 159.492188 29.546875 159.070312 29.460938 158.664062 29.296875 C 158.261719 29.128906 157.902344 28.886719 157.59375 28.578125 C 157.285156 28.269531 157.042969 27.910156 156.875 27.503906 C 156.707031 27.101562 156.625 26.679688 156.625 26.242188 C 156.625 25.800781 156.707031 25.378906 156.875 24.976562 C 157.042969 24.570312 157.285156 24.214844 157.59375 23.902344 C 157.902344 23.59375 158.261719 23.355469 158.664062 23.1875 C 159.070312 23.019531 159.492188 22.933594 159.929688 22.933594 L 179.523438 22.933594 C 179.964844 22.933594 180.386719 23.019531 180.789062 23.1875 C 181.195312 23.355469 181.550781 23.59375 181.863281 23.902344 C 182.171875 24.214844 182.410156 24.570312 182.578125 24.976562 C 182.746094 25.378906 182.832031 25.800781 182.832031 26.242188 C 182.832031 26.679688 182.746094 27.101562 182.578125 27.503906 C 182.410156 27.910156 182.171875 28.269531 181.863281 28.578125 C 181.550781 28.886719 181.195312 29.128906 180.789062 29.296875 C 180.386719 29.460938 179.964844 29.546875 179.523438 29.546875 Z M 179.523438 29.546875 " fill-opacity="1" fill-rule="nonzero"/><path fill="#3a287a" d="M 259.207031 119.167969 L 132.503906 119.167969 C 132.066406 119.167969 131.644531 119.085938 131.238281 118.917969 C 130.832031 118.75 130.476562 118.511719 130.164062 118.199219 C 129.855469 117.890625 129.617188 117.535156 129.449219 117.128906 C 129.28125 116.722656 129.199219 116.300781 129.199219 115.863281 C 129.199219 115.425781 129.28125 115.003906 129.449219 114.597656 C 129.617188 114.191406 129.855469 113.835938 130.164062 113.527344 C 130.476562 113.214844 130.832031 112.976562 131.238281 112.808594 C 131.644531 112.640625 132.066406 112.558594 132.503906 112.558594 L 259.207031 112.558594 C 259.648438 112.558594 260.070312 112.640625 260.472656 112.808594 C 260.878906 112.976562 261.234375 113.214844 261.546875 113.527344 C 261.855469 113.835938 262.09375 114.191406 262.261719 114.597656 C 262.429688 115.003906 262.515625 115.425781 262.515625 115.863281 C 262.515625 116.300781 262.429688 116.722656 262.261719 117.128906 C 262.09375 117.535156 261.855469 117.890625 261.546875 118.199219 C 261.234375 118.511719 260.878906 118.75 260.472656 118.917969 C 260.070312 119.085938 259.648438 119.167969 259.207031 119.167969 Z M 259.207031 119.167969 " fill-opacity="1" fill-rule="nonzero"/><path fill="#3a287a" d="M 259.207031 99.332031 L 132.503906 99.332031 C 132.066406 99.332031 131.644531 99.25 131.238281 99.082031 C 130.832031 98.914062 130.476562 98.675781 130.164062 98.367188 C 129.855469 98.054688 129.617188 97.699219 129.449219 97.292969 C 129.28125 96.886719 129.199219 96.464844 129.199219 96.027344 C 129.199219 95.589844 129.28125 95.167969 129.449219 94.761719 C 129.617188 94.359375 129.855469 94 130.164062 93.691406 C 130.476562 93.378906 130.832031 93.140625 131.238281 92.972656 C 131.644531 92.804688 132.066406 92.722656 132.503906 92.722656 L 259.207031 92.722656 C 259.648438 92.722656 260.070312 92.804688 260.472656 92.972656 C 260.878906 93.140625 261.234375 93.378906 261.546875 93.691406 C 261.855469 94 262.09375 94.359375 262.261719 94.761719 C 262.429688 95.167969 262.515625 95.589844 262.515625 96.027344 C 262.515625 96.464844 262.429688 96.886719 262.261719 97.292969 C 262.09375 97.699219 261.855469 98.054688 261.546875 98.367188 C 261.234375 98.675781 260.878906 98.914062 260.472656 99.082031 C 260.070312 99.25 259.648438 99.332031 259.207031 99.332031 Z M 259.207031 99.332031 " fill-opacity="1" fill-rule="nonzero"/><path fill="#3a287a" d="M 259.207031 178.046875 L 132.503906 178.046875 C 132.066406 178.046875 131.644531 177.964844 131.238281 177.796875 C 130.832031 177.628906 130.476562 177.386719 130.164062 177.078125 C 129.855469 176.769531 129.617188 176.410156 129.449219 176.007812 C 129.28125 175.601562 129.199219 175.179688 129.199219 174.742188 C 129.199219 174.300781 129.28125 173.882812 129.449219 173.476562 C 129.617188 173.070312 129.855469 172.714844 130.164062 172.402344 C 130.476562 172.09375 130.832031 171.855469 131.238281 171.6875 C 131.644531 171.519531 132.066406 171.433594 132.503906 171.433594 L 259.207031 171.433594 C 259.648438 171.433594 260.070312 171.519531 260.472656 171.6875 C 260.878906 171.855469 261.234375 172.09375 261.546875 172.402344 C 261.855469 172.714844 262.09375 173.070312 262.261719 173.476562 C 262.429688 173.882812 262.515625 174.300781 262.515625 174.742188 C 262.515625 175.179688 262.429688 175.601562 262.261719 176.007812 C 262.09375 176.410156 261.855469 176.769531 261.546875 177.078125 C 261.234375 177.386719 260.878906 177.628906 260.472656 177.796875 C 260.070312 177.964844 259.648438 178.046875 259.207031 178.046875 Z M 259.207031 178.046875 " fill-opacity="1" fill-rule="nonzero"/><path fill="#3a287a" d="M 259.207031 158.210938 L 132.503906 158.210938 C 132.066406 158.210938 131.644531 158.128906 131.238281 157.960938 C 130.832031 157.792969 130.476562 157.554688 130.164062 157.242188 C 129.855469 156.933594 129.617188 156.574219 129.449219 156.171875 C 129.28125 155.765625 129.199219 155.34375 129.199219 154.90625 C 129.199219 154.46875 129.28125 154.046875 129.449219 153.640625 C 129.617188 153.234375 129.855469 152.878906 130.164062 152.566406 C 130.476562 152.257812 130.832031 152.019531 131.238281 151.851562 C 131.644531 151.683594 132.066406 151.601562 132.503906 151.601562 L 259.207031 151.601562 C 259.648438 151.601562 260.070312 151.683594 260.472656 151.851562 C 260.878906 152.019531 261.234375 152.257812 261.546875 152.566406 C 261.855469 152.878906 262.09375 153.234375 262.261719 153.640625 C 262.429688 154.046875 262.515625 154.46875 262.515625 154.90625 C 262.515625 155.34375 262.429688 155.765625 262.261719 156.171875 C 262.09375 156.574219 261.855469 156.933594 261.546875 157.242188 C 261.234375 157.554688 260.878906 157.792969 260.472656 157.960938 C 260.070312 158.128906 259.648438 158.210938 259.207031 158.210938 Z M 259.207031 158.210938 " fill-opacity="1" fill-rule="nonzero"/><path fill="#3a287a" d="M 259.207031 236.925781 L 132.503906 236.925781 C 132.066406 236.925781 131.644531 236.839844 131.238281 236.671875 C 130.832031 236.507812 130.476562 236.265625 130.164062 235.957031 C 129.855469 235.648438 129.617188 235.289062 129.449219 234.882812 C 129.28125 234.480469 129.199219 234.058594 129.199219 233.621094 C 129.199219 233.179688 129.28125 232.757812 129.449219 232.355469 C 129.617188 231.949219 129.855469 231.59375 130.164062 231.28125 C 130.476562 230.972656 130.832031 230.734375 131.238281 230.566406 C 131.644531 230.398438 132.066406 230.3125 132.503906 230.3125 L 259.207031 230.3125 C 259.648438 230.3125 260.070312 230.398438 260.472656 230.566406 C 260.878906 230.734375 261.234375 230.972656 261.546875 231.28125 C 261.855469 231.59375 262.09375 231.949219 262.261719 232.355469 C 262.429688 232.757812 262.515625 233.179688 262.515625 233.621094 C 262.515625 234.058594 262.429688 234.480469 262.261719 234.882812 C 262.09375 235.289062 261.855469 235.648438 261.546875 235.957031 C 261.234375 236.265625 260.878906 236.507812 260.472656 236.671875 C 260.070312 236.839844 259.648438 236.925781 259.207031 236.925781 Z M 259.207031 236.925781 " fill-opacity="1" fill-rule="nonzero"/><path fill="#3a287a" d="M 259.207031 217.089844 L 132.503906 217.089844 C 132.066406 217.089844 131.644531 217.007812 131.238281 216.839844 C 130.832031 216.671875 130.476562 216.433594 130.164062 216.121094 C 129.855469 215.8125 129.617188 215.453125 129.449219 215.050781 C 129.28125 214.644531 129.199219 214.222656 129.199219 213.785156 C 129.199219 213.347656 129.28125 212.925781 129.449219 212.519531 C 129.617188 212.113281 129.855469 211.757812 130.164062 211.445312 C 130.476562 211.136719 130.832031 210.898438 131.238281 210.730469 C 131.644531 210.5625 132.066406 210.476562 132.503906 210.476562 L 259.207031 210.476562 C 259.648438 210.476562 260.070312 210.5625 260.472656 210.730469 C 260.878906 210.898438 261.234375 211.136719 261.546875 211.445312 C 261.855469 211.757812 262.09375 212.113281 262.261719 212.519531 C 262.429688 212.925781 262.515625 213.347656 262.515625 213.785156 C 262.515625 214.222656 262.429688 214.644531 262.261719 215.050781 C 262.09375 215.453125 261.855469 215.8125 261.546875 216.121094 C 261.234375 216.433594 260.878906 216.671875 260.472656 216.839844 C 260.070312 217.007812 259.648438 217.089844 259.207031 217.089844 Z M 259.207031 217.089844 " fill-opacity="1" fill-rule="nonzero"/><path fill="#3a287a" d="M 219.574219 295.800781 L 132.503906 295.800781 C 132.066406 295.800781 131.644531 295.71875 131.238281 295.550781 C 130.832031 295.382812 130.476562 295.144531 130.164062 294.835938 C 129.855469 294.523438 129.617188 294.167969 129.449219 293.761719 C 129.28125 293.355469 129.199219 292.933594 129.199219 292.496094 C 129.199219 292.058594 129.28125 291.636719 129.449219 291.230469 C 129.617188 290.828125 129.855469 290.46875 130.164062 290.160156 C 130.476562 289.847656 130.832031 289.609375 131.238281 289.441406 C 131.644531 289.273438 132.066406 289.191406 132.503906 289.191406 L 219.574219 289.191406 C 220.011719 289.191406 220.433594 289.273438 220.839844 289.441406 C 221.242188 289.609375 221.601562 289.847656 221.910156 290.160156 C 222.21875 290.46875 222.460938 290.828125 222.628906 291.230469 C 222.796875 291.636719 222.878906 292.058594 222.878906 292.496094 C 222.878906 292.933594 222.796875 293.355469 222.628906 293.761719 C 222.460938 294.167969 222.21875 294.523438 221.910156 294.835938 C 221.601562 295.144531 221.242188 295.382812 220.839844 295.550781 C 220.433594 295.71875 220.011719 295.800781 219.574219 295.800781 Z M 219.574219 295.800781 " fill-opacity="1" fill-rule="nonzero"/><path fill="#3a287a" d="M 219.574219 275.96875 L 132.503906 275.96875 C 132.066406 275.96875 131.644531 275.882812 131.238281 275.714844 C 130.832031 275.546875 130.476562 275.308594 130.164062 275 C 129.855469 274.6875 129.617188 274.332031 129.449219 273.925781 C 129.28125 273.519531 129.199219 273.101562 129.199219 272.660156 C 129.199219 272.222656 129.28125 271.800781 129.449219 271.394531 C 129.617188 270.992188 129.855469 270.632812 130.164062 270.324219 C 130.476562 270.015625 130.832031 269.773438 131.238281 269.605469 C 131.644531 269.4375 132.066406 269.355469 132.503906 269.355469 L 219.574219 269.355469 C 220.011719 269.355469 220.433594 269.4375 220.839844 269.605469 C 221.242188 269.773438 221.601562 270.015625 221.910156 270.324219 C 222.21875 270.632812 222.460938 270.992188 222.628906 271.394531 C 222.796875 271.800781 222.878906 272.222656 222.878906 272.660156 C 222.878906 273.101562 222.796875 273.519531 222.628906 273.925781 C 222.460938 274.332031 222.21875 274.6875 221.910156 275 C 221.601562 275.308594 221.242188 275.546875 220.839844 275.714844 C 220.433594 275.882812 220.011719 275.96875 219.574219 275.96875 Z M 219.574219 275.96875 " fill-opacity="1" fill-rule="nonzero"/><g clip-path="url(#311a235265)"><path fill="#3a287a" d="M 351.765625 367.9375 L 245.988281 367.9375 C 245.546875 367.9375 245.125 367.851562 244.722656 367.683594 C 244.316406 367.515625 243.957031 367.277344 243.648438 366.96875 C 243.339844 366.660156 243.101562 366.300781 242.933594 365.894531 C 242.765625 365.492188 242.679688 365.070312 242.679688 364.632812 L 242.679688 258.84375 C 242.679688 258.40625 242.765625 257.984375 242.933594 257.578125 C 243.101562 257.171875 243.339844 256.816406 243.648438 256.503906 C 243.957031 256.195312 244.316406 255.957031 244.722656 255.789062 C 245.125 255.621094 245.546875 255.535156 245.988281 255.535156 L 351.765625 255.535156 C 352.203125 255.535156 352.625 255.621094 353.03125 255.789062 C 353.4375 255.957031 353.792969 256.195312 354.101562 256.503906 C 354.414062 256.816406 354.652344 257.171875 354.820312 257.578125 C 354.988281 257.984375 355.070312 258.40625 355.070312 258.84375 L 355.070312 364.632812 C 355.070312 365.070312 354.988281 365.492188 354.820312 365.894531 C 354.652344 366.300781 354.414062 366.660156 354.101562 366.96875 C 353.792969 367.277344 353.4375 367.515625 353.03125 367.683594 C 352.625 367.851562 352.203125 367.9375 351.765625 367.9375 Z M 249.292969 361.324219 L 348.460938 361.324219 L 348.460938 262.148438 L 249.292969 262.148438 Z M 249.292969 361.324219 " fill-opacity="1" fill-rule="nonzero"/></g><path fill="#3a287a" d="M 245.988281 367.9375 L 232.765625 367.9375 C 232.324219 367.9375 231.902344 367.851562 231.5 367.683594 C 231.09375 367.515625 230.738281 367.277344 230.425781 366.96875 C 230.117188 366.660156 229.878906 366.300781 229.710938 365.894531 C 229.542969 365.492188 229.457031 365.070312 229.457031 364.632812 L 229.457031 258.84375 C 229.457031 258.40625 229.542969 257.984375 229.710938 257.578125 C 229.878906 257.171875 230.117188 256.816406 230.425781 256.503906 C 230.738281 256.195312 231.09375 255.957031 231.5 255.789062 C 231.902344 255.621094 232.324219 255.535156 232.765625 255.535156 L 245.988281 255.535156 C 246.425781 255.535156 246.847656 255.621094 247.25 255.789062 C 247.65625 255.957031 248.015625 256.195312 248.324219 256.503906 C 248.632812 256.816406 248.871094 257.171875 249.039062 257.578125 C 249.207031 257.984375 249.292969 258.40625 249.292969 258.84375 C 249.292969 259.28125 249.207031 259.703125 249.039062 260.109375 C 248.871094 260.511719 248.632812 260.871094 248.324219 261.179688 C 248.015625 261.492188 247.65625 261.730469 247.25 261.898438 C 246.847656 262.066406 246.425781 262.148438 245.988281 262.148438 L 236.070312 262.148438 L 236.070312 361.324219 L 245.988281 361.324219 C 246.425781 361.324219 246.847656 361.410156 247.25 361.578125 C 247.65625 361.746094 248.015625 361.984375 248.324219 362.292969 C 248.632812 362.601562 248.871094 362.960938 249.039062 363.367188 C 249.207031 363.769531 249.292969 364.191406 249.292969 364.632812 C 249.292969 365.070312 249.207031 365.492188 249.039062 365.894531 C 248.871094 366.300781 248.632812 366.660156 248.324219 366.96875 C 248.015625 367.277344 247.65625 367.515625 247.25 367.683594 C 246.847656 367.851562 246.425781 367.9375 245.988281 367.9375 Z M 245.988281 367.9375 " fill-opacity="1" fill-rule="nonzero"/><path fill="#3a287a" d="M 316.507812 297.414062 L 281.242188 297.414062 C 280.804688 297.414062 280.382812 297.328125 279.980469 297.160156 C 279.574219 296.992188 279.214844 296.753906 278.90625 296.445312 C 278.597656 296.132812 278.359375 295.777344 278.191406 295.371094 C 278.023438 294.964844 277.9375 294.546875 277.9375 294.105469 L 277.9375 258.84375 C 277.9375 258.40625 278.023438 257.984375 278.191406 257.578125 C 278.359375 257.171875 278.597656 256.816406 278.90625 256.503906 C 279.214844 256.195312 279.574219 255.957031 279.980469 255.789062 C 280.382812 255.621094 280.804688 255.535156 281.242188 255.535156 C 281.683594 255.535156 282.105469 255.621094 282.507812 255.789062 C 282.914062 255.957031 283.273438 256.195312 283.582031 256.503906 C 283.890625 256.816406 284.128906 257.171875 284.296875 257.578125 C 284.464844 257.984375 284.550781 258.40625 284.550781 258.84375 L 284.550781 290.800781 L 313.203125 290.800781 L 313.203125 258.84375 C 313.203125 258.40625 313.285156 257.984375 313.453125 257.578125 C 313.621094 257.171875 313.859375 256.816406 314.171875 256.503906 C 314.480469 256.195312 314.835938 255.957031 315.242188 255.789062 C 315.648438 255.621094 316.070312 255.535156 316.507812 255.535156 C 316.945312 255.535156 317.367188 255.621094 317.773438 255.789062 C 318.175781 255.957031 318.535156 256.195312 318.84375 256.503906 C 319.15625 256.816406 319.394531 257.171875 319.5625 257.578125 C 319.730469 257.984375 319.8125 258.40625 319.8125 258.84375 L 319.8125 294.105469 C 319.8125 294.546875 319.730469 294.964844 319.5625 295.371094 C 319.394531 295.777344 319.15625 296.132812 318.84375 296.445312 C 318.535156 296.753906 318.175781 296.992188 317.773438 297.160156 C 317.367188 297.328125 316.945312 297.414062 316.507812 297.414062 Z M 316.507812 297.414062 " fill-opacity="1" fill-rule="nonzero"/><path fill="#3a287a" d="M 306.222656 354.714844 L 259.945312 354.714844 C 259.507812 354.714844 259.085938 354.628906 258.679688 354.460938 C 258.273438 354.292969 257.917969 354.054688 257.605469 353.746094 C 257.296875 353.433594 257.058594 353.078125 256.890625 352.671875 C 256.722656 352.265625 256.640625 351.847656 256.640625 351.40625 L 256.640625 338.183594 C 256.640625 337.746094 256.722656 337.324219 256.890625 336.917969 C 257.058594 336.515625 257.296875 336.15625 257.605469 335.847656 C 257.917969 335.535156 258.273438 335.296875 258.679688 335.128906 C 259.085938 334.960938 259.507812 334.878906 259.945312 334.878906 L 306.222656 334.878906 C 306.660156 334.878906 307.082031 334.960938 307.488281 335.128906 C 307.894531 335.296875 308.25 335.535156 308.5625 335.847656 C 308.871094 336.15625 309.109375 336.515625 309.277344 336.917969 C 309.445312 337.324219 309.527344 337.746094 309.527344 338.183594 L 309.527344 351.40625 C 309.527344 351.847656 309.445312 352.265625 309.277344 352.671875 C 309.109375 353.078125 308.871094 353.433594 308.5625 353.746094 C 308.25 354.054688 307.894531 354.292969 307.488281 354.460938 C 307.082031 354.628906 306.660156 354.714844 306.222656 354.714844 Z M 263.25 348.101562 L 302.917969 348.101562 L 302.917969 341.488281 L 263.25 341.488281 Z M 263.25 348.101562 " fill-opacity="1" fill-rule="nonzero"/><path fill="#3a287a" d="M 112.667969 295.800781 L 80.242188 295.800781 C 79.800781 295.800781 79.378906 295.71875 78.976562 295.550781 C 78.570312 295.382812 78.210938 295.144531 77.902344 294.835938 C 77.59375 294.523438 77.355469 294.167969 77.1875 293.761719 C 77.019531 293.355469 76.933594 292.933594 76.933594 292.496094 L 76.933594 260.066406 C 76.933594 259.628906 77.019531 259.207031 77.1875 258.800781 C 77.355469 258.394531 77.59375 258.039062 77.902344 257.730469 C 78.210938 257.417969 78.570312 257.179688 78.976562 257.011719 C 79.378906 256.84375 79.800781 256.761719 80.242188 256.761719 L 112.667969 256.761719 C 113.109375 256.761719 113.53125 256.84375 113.933594 257.011719 C 114.339844 257.179688 114.695312 257.417969 115.007812 257.730469 C 115.316406 258.039062 115.554688 258.394531 115.722656 258.800781 C 115.890625 259.207031 115.976562 259.628906 115.976562 260.066406 L 115.976562 292.496094 C 115.976562 292.933594 115.890625 293.355469 115.722656 293.761719 C 115.554688 294.167969 115.316406 294.523438 115.007812 294.835938 C 114.695312 295.144531 114.339844 295.382812 113.933594 295.550781 C 113.53125 295.71875 113.109375 295.800781 112.667969 295.800781 Z M 83.546875 289.191406 L 109.363281 289.191406 L 109.363281 263.371094 L 83.546875 263.371094 Z M 83.546875 289.191406 " fill-opacity="1" fill-rule="nonzero"/><path fill="#3a287a" d="M 90.757812 286.484375 C 89.84375 286.484375 89.066406 286.164062 88.421875 285.515625 L 72.738281 269.835938 C 72.4375 269.523438 72.207031 269.167969 72.046875 268.765625 C 71.882812 268.363281 71.804688 267.945312 71.808594 267.511719 C 71.8125 267.078125 71.898438 266.660156 72.066406 266.261719 C 72.234375 265.859375 72.472656 265.507812 72.777344 265.199219 C 73.085938 264.894531 73.4375 264.65625 73.835938 264.488281 C 74.238281 264.324219 74.652344 264.238281 75.085938 264.234375 C 75.519531 264.230469 75.9375 264.308594 76.339844 264.46875 C 76.742188 264.628906 77.101562 264.859375 77.410156 265.160156 L 90.757812 278.503906 L 118.433594 250.828125 C 118.742188 250.507812 119.101562 250.261719 119.507812 250.085938 C 119.914062 249.910156 120.339844 249.820312 120.785156 249.816406 C 121.226562 249.8125 121.65625 249.894531 122.066406 250.0625 C 122.476562 250.230469 122.835938 250.472656 123.148438 250.785156 C 123.464844 251.097656 123.703125 251.460938 123.871094 251.871094 C 124.039062 252.28125 124.121094 252.707031 124.117188 253.152344 C 124.113281 253.59375 124.023438 254.019531 123.851562 254.429688 C 123.675781 254.835938 123.429688 255.191406 123.109375 255.5 L 93.09375 285.519531 C 92.449219 286.164062 91.671875 286.484375 90.757812 286.484375 Z M 90.757812 286.484375 " fill-opacity="1" fill-rule="nonzero"/><path fill="#3a287a" d="M 112.667969 236.925781 L 80.242188 236.925781 C 79.800781 236.925781 79.378906 236.839844 78.976562 236.671875 C 78.570312 236.507812 78.210938 236.265625 77.902344 235.957031 C 77.59375 235.648438 77.355469 235.289062 77.1875 234.882812 C 77.019531 234.480469 76.933594 234.058594 76.933594 233.621094 L 76.933594 201.1875 C 76.933594 200.75 77.019531 200.328125 77.1875 199.921875 C 77.355469 199.519531 77.59375 199.160156 77.902344 198.851562 C 78.210938 198.539062 78.570312 198.300781 78.976562 198.132812 C 79.378906 197.964844 79.800781 197.882812 80.242188 197.882812 L 112.667969 197.882812 C 113.109375 197.882812 113.53125 197.964844 113.933594 198.132812 C 114.339844 198.300781 114.695312 198.539062 115.007812 198.851562 C 115.316406 199.160156 115.554688 199.519531 115.722656 199.921875 C 115.890625 200.328125 115.976562 200.75 115.976562 201.1875 L 115.976562 233.621094 C 115.976562 234.058594 115.890625 234.480469 115.722656 234.886719 C 115.554688 235.289062 115.316406 235.648438 115.007812 235.957031 C 114.695312 236.265625 114.339844 236.507812 113.933594 236.675781 C 113.53125 236.839844 113.109375 236.925781 112.667969 236.925781 Z M 83.546875 230.3125 L 109.363281 230.3125 L 109.363281 204.492188 L 83.546875 204.492188 Z M 83.546875 230.3125 " fill-opacity="1" fill-rule="nonzero"/><path fill="#3a287a" d="M 90.757812 227.609375 C 89.84375 227.609375 89.066406 227.285156 88.421875 226.640625 L 72.738281 210.957031 C 72.4375 210.644531 72.207031 210.285156 72.046875 209.882812 C 71.882812 209.480469 71.804688 209.0625 71.808594 208.628906 C 71.8125 208.195312 71.898438 207.78125 72.066406 207.378906 C 72.234375 206.980469 72.472656 206.628906 72.777344 206.320312 C 73.085938 206.015625 73.4375 205.777344 73.835938 205.609375 C 74.238281 205.441406 74.652344 205.355469 75.085938 205.351562 C 75.519531 205.347656 75.9375 205.429688 76.339844 205.589844 C 76.742188 205.75 77.101562 205.980469 77.410156 206.28125 L 90.757812 219.628906 L 118.433594 191.945312 C 118.746094 191.644531 119.105469 191.410156 119.507812 191.246094 C 119.910156 191.085938 120.328125 191.003906 120.765625 191.007812 C 121.199219 191.011719 121.617188 191.097656 122.019531 191.265625 C 122.417969 191.429688 122.773438 191.667969 123.082031 191.976562 C 123.386719 192.285156 123.625 192.636719 123.792969 193.039062 C 123.960938 193.441406 124.046875 193.859375 124.046875 194.292969 C 124.050781 194.726562 123.972656 195.148438 123.808594 195.550781 C 123.644531 195.953125 123.414062 196.3125 123.109375 196.621094 L 93.09375 226.640625 C 92.449219 227.285156 91.671875 227.609375 90.757812 227.609375 Z M 90.757812 227.609375 " fill-opacity="1" fill-rule="nonzero"/><path fill="#3a287a" d="M 112.667969 178.046875 L 80.242188 178.046875 C 79.800781 178.046875 79.378906 177.964844 78.976562 177.796875 C 78.570312 177.628906 78.210938 177.386719 77.902344 177.078125 C 77.59375 176.769531 77.355469 176.410156 77.1875 176.007812 C 77.019531 175.601562 76.933594 175.179688 76.933594 174.742188 L 76.933594 142.308594 C 76.933594 141.871094 77.019531 141.449219 77.1875 141.046875 C 77.355469 140.640625 77.59375 140.28125 77.902344 139.972656 C 78.210938 139.664062 78.570312 139.425781 78.976562 139.257812 C 79.378906 139.089844 79.800781 139.003906 80.242188 139.003906 L 112.667969 139.003906 C 113.109375 139.003906 113.53125 139.089844 113.933594 139.257812 C 114.339844 139.425781 114.695312 139.664062 115.007812 139.972656 C 115.316406 140.28125 115.554688 140.640625 115.722656 141.046875 C 115.890625 141.449219 115.976562 141.871094 115.976562 142.308594 L 115.976562 174.742188 C 115.976562 175.179688 115.890625 175.601562 115.722656 176.007812 C 115.554688 176.410156 115.316406 176.769531 115.007812 177.078125 C 114.695312 177.386719 114.339844 177.628906 113.933594 177.796875 C 113.53125 177.964844 113.109375 178.046875 112.667969 178.046875 Z M 83.546875 171.433594 L 109.363281 171.433594 L 109.363281 145.617188 L 83.546875 145.617188 Z M 83.546875 171.433594 " fill-opacity="1" fill-rule="nonzero"/><path fill="#3a287a" d="M 90.757812 168.726562 C 89.84375 168.730469 89.066406 168.40625 88.421875 167.757812 L 72.738281 152.078125 C 72.4375 151.765625 72.207031 151.410156 72.046875 151.007812 C 71.882812 150.605469 71.804688 150.1875 71.808594 149.753906 C 71.8125 149.320312 71.898438 148.902344 72.066406 148.503906 C 72.234375 148.105469 72.472656 147.75 72.777344 147.445312 C 73.085938 147.136719 73.4375 146.902344 73.835938 146.734375 C 74.238281 146.566406 74.652344 146.480469 75.085938 146.476562 C 75.519531 146.472656 75.9375 146.550781 76.339844 146.710938 C 76.742188 146.871094 77.101562 147.105469 77.410156 147.40625 L 90.757812 160.746094 L 118.433594 133.070312 C 118.742188 132.753906 119.101562 132.507812 119.507812 132.335938 C 119.914062 132.164062 120.339844 132.074219 120.78125 132.074219 C 121.222656 132.070312 121.648438 132.152344 122.058594 132.320312 C 122.464844 132.488281 122.828125 132.726562 123.140625 133.039062 C 123.453125 133.355469 123.691406 133.714844 123.859375 134.125 C 124.027344 134.53125 124.109375 134.957031 124.109375 135.398438 C 124.105469 135.839844 124.015625 136.265625 123.84375 136.671875 C 123.671875 137.078125 123.425781 137.4375 123.109375 137.746094 L 93.09375 167.761719 C 92.449219 168.410156 91.671875 168.730469 90.757812 168.726562 Z M 90.757812 168.726562 " fill-opacity="1" fill-rule="nonzero"/><path fill="#3a287a" d="M 112.667969 119.167969 L 80.242188 119.167969 C 79.800781 119.167969 79.378906 119.085938 78.976562 118.917969 C 78.570312 118.75 78.210938 118.511719 77.902344 118.199219 C 77.59375 117.890625 77.355469 117.535156 77.1875 117.128906 C 77.019531 116.722656 76.933594 116.300781 76.933594 115.863281 L 76.933594 83.433594 C 76.933594 82.996094 77.019531 82.574219 77.1875 82.167969 C 77.355469 81.761719 77.59375 81.40625 77.902344 81.09375 C 78.210938 80.785156 78.570312 80.546875 78.976562 80.378906 C 79.378906 80.210938 79.800781 80.125 80.242188 80.125 L 112.667969 80.125 C 113.109375 80.125 113.53125 80.210938 113.933594 80.378906 C 114.339844 80.546875 114.695312 80.785156 115.007812 81.09375 C 115.316406 81.40625 115.554688 81.761719 115.722656 82.167969 C 115.890625 82.574219 115.976562 82.996094 115.976562 83.433594 L 115.976562 115.863281 C 115.976562 116.300781 115.890625 116.722656 115.722656 117.128906 C 115.554688 117.535156 115.316406 117.890625 115.007812 118.199219 C 114.695312 118.511719 114.339844 118.75 113.933594 118.917969 C 113.53125 119.085938 113.109375 119.167969 112.667969 119.167969 Z M 83.546875 112.558594 L 109.363281 112.558594 L 109.363281 86.738281 L 83.546875 86.738281 Z M 83.546875 112.558594 " fill-opacity="1" fill-rule="nonzero"/><path fill="#3a287a" d="M 90.757812 109.851562 C 89.84375 109.851562 89.066406 109.53125 88.421875 108.882812 L 72.738281 93.199219 C 72.421875 92.890625 72.175781 92.535156 72.003906 92.128906 C 71.832031 91.71875 71.742188 91.296875 71.742188 90.855469 C 71.738281 90.410156 71.820312 89.988281 71.988281 89.578125 C 72.15625 89.167969 72.394531 88.808594 72.707031 88.496094 C 73.019531 88.183594 73.382812 87.941406 73.789062 87.773438 C 74.199219 87.605469 74.625 87.523438 75.066406 87.527344 C 75.507812 87.53125 75.933594 87.617188 76.339844 87.789062 C 76.746094 87.964844 77.105469 88.207031 77.414062 88.523438 L 90.757812 101.871094 L 118.4375 74.191406 C 118.742188 73.871094 119.101562 73.625 119.507812 73.449219 C 119.917969 73.277344 120.339844 73.1875 120.785156 73.183594 C 121.226562 73.179688 121.65625 73.261719 122.066406 73.429688 C 122.476562 73.597656 122.835938 73.835938 123.152344 74.148438 C 123.464844 74.464844 123.707031 74.824219 123.875 75.234375 C 124.039062 75.644531 124.121094 76.074219 124.117188 76.515625 C 124.117188 76.960938 124.027344 77.386719 123.851562 77.792969 C 123.675781 78.199219 123.429688 78.558594 123.109375 78.867188 L 93.09375 108.882812 C 92.449219 109.53125 91.671875 109.851562 90.757812 109.851562 Z M 90.757812 109.851562 " fill-opacity="1" fill-rule="nonzero"/></svg>